<?xml version="1.0" encoding="utf-8"?>
<!-- Generator: Adobe Illustrator 21.0.0, SVG Export Plug-In . SVG Version: 6.00 Build 0)  -->
<svg version="1.1" id="Layer_1" xmlns="http://www.w3.org/2000/svg" xmlns:xlink="http://www.w3.org/1999/xlink" x="0px" y="0px"
	 viewBox="0 0 463.6 138.7" style="enable-background:new 0 0 463.6 138.7;" xml:space="preserve">
<style type="text/css">
	.st0{fill:#FFFFFF;}
</style>
<g>
	<g>
		<g>
			<polygon class="st0" points="129.1,45.8 138.5,45.8 138.5,68.1 164,68.1 164,45.8 173.4,45.8 173.4,99.4 164,99.4 164,76.8 
				138.5,76.8 138.5,99.4 129.1,99.4 			"/>
			<path class="st0" d="M200.1,72.7v-0.2c0-15.1,11.6-27.7,28-27.7c16.4,0,27.9,12.5,27.9,27.6v0.2c0,15.1-11.6,27.7-28,27.7
				C211.5,100.3,200.1,87.8,200.1,72.7 M246.1,72.7v-0.2c0-10.4-7.6-19.1-18.2-19.1c-10.6,0-18,8.5-18,18.9v0.2
				c0,10.4,7.6,19,18.2,19C238.7,91.6,246.1,83.2,246.1,72.7"/>
			<polygon class="st0" points="274.6,45.8 285,45.8 301.1,87 317.2,45.8 327.3,45.8 305.2,99.8 296.9,99.8 			"/>
			<polygon class="st0" points="351.8,45.8 391.4,45.8 391.4,54.2 361.1,54.2 361.1,68.1 387.9,68.1 387.9,76.6 361.1,76.6 
				361.1,91 391.8,91 391.8,99.4 351.8,99.4 			"/>
			<path class="st0" d="M418.2,45.8H442c6.7,0,12,2,15.4,5.4c2.8,2.9,4.4,6.9,4.4,11.6v0.2c0,8.8-5.3,14.1-12.7,16.2l14.4,20.3
				h-11.1l-13.1-18.7h-11.8v18.7h-9.4V45.8z M441.3,72.4c6.7,0,11-3.5,11-9v-0.2c0-5.7-4.1-8.9-11.1-8.9h-13.7v18H441.3z"/>
		</g>
	</g>
	<g>
		<g>
			<g>
				<polygon class="st0" points="33,67.6 33,98.4 23,91.9 23,37.3 0,23.3 0,106.3 58,138.7 58,82.1 				"/>
			</g>
		</g>
		<g>
			<g>
				<polygon class="st0" points="58,71.2 58,40.4 70,46.9 70,101.6 91,115.7 91,32.5 33,0 33,56.7 				"/>
			</g>
		</g>
	</g>
</g>
</svg>
